M48
; DRILL file {KiCad 9.0.0} date 2025-04-23T22:03:39+0200
; FORMAT={-:-/ absolute / metric / decimal}
; #@! TF.CreationDate,2025-04-23T22:03:39+02:00
; #@! TF.GenerationSoftware,Kicad,Pcbnew,9.0.0
; #@! TF.FileFunction,Plated,1,2,PTH
FMAT,2
METRIC
; #@! TA.AperFunction,Plated,PTH,ViaDrill
T1C0.300
; #@! TA.AperFunction,Plated,PTH,ComponentDrill
T2C0.330
; #@! TA.AperFunction,Plated,PTH,ComponentDrill
T3C0.690
; #@! TA.AperFunction,Plated,PTH,ComponentDrill
T4C0.800
; #@! TA.AperFunction,Plated,PTH,ComponentDrill
T5C1.000
; #@! TA.AperFunction,Plated,PTH,ComponentDrill
T6C1.016
; #@! TA.AperFunction,Plated,PTH,ComponentDrill
T7C1.100
; #@! TA.AperFunction,Plated,PTH,ComponentDrill
T8C1.300
; #@! TA.AperFunction,Plated,PTH,ComponentDrill
T9C1.400
; #@! TA.AperFunction,Plated,PTH,ComponentDrill
T10C3.302
%
G90
G05
T1
X108.45Y-88.95
X108.5Y-83.0
X108.5Y-86.0
X109.5Y-79.5
X111.46Y-68.54
X111.5Y-64.5
X113.175Y-84.638
X113.25Y-82.212
X113.5Y-64.5
X113.5Y-68.5
X114.0Y-55.2
X118.0Y-40.5
X118.5Y-67.0
X118.5Y-68.5
X118.5Y-69.5
X118.5Y-70.5
X118.5Y-71.5
X118.5Y-72.5
X118.5Y-73.5
X118.5Y-74.5
X118.5Y-75.5
X119.5Y-67.0
X119.5Y-73.84
X119.5Y-75.5
X119.55Y-68.39
X120.5Y-67.0
X120.5Y-75.5
X121.0Y-40.5
X121.0Y-55.2
X121.5Y-67.0
X121.5Y-75.5
X122.0Y-81.5
X122.29Y-73.79
X122.5Y-67.0
X122.5Y-68.39
X122.5Y-75.5
X123.5Y-67.0
X123.5Y-75.5
X124.5Y-67.0
X124.5Y-75.5
X125.5Y-67.0
X125.5Y-75.5
X126.5Y-67.0
X126.5Y-75.5
X127.5Y-51.0
X127.5Y-67.0
X127.5Y-69.34
X127.5Y-75.5
X131.0Y-69.34
X131.5Y-51.0
X131.5Y-67.0
X131.5Y-68.0
X131.5Y-69.0
X131.5Y-70.0
X131.5Y-71.0
X131.5Y-72.0
X131.5Y-73.0
X131.5Y-74.0
X131.5Y-75.5
X133.0Y-49.5
X136.0Y-49.5
X139.5Y-49.5
X140.0Y-75.0
X142.0Y-77.0
X142.5Y-49.5
X143.5Y-65.84
X143.5Y-70.84
X146.0Y-67.84
X146.5Y-69.34
X148.5Y-67.84
X150.0Y-61.5
X150.0Y-69.34
X151.5Y-60.0
X153.0Y-59.427
X153.0Y-64.752
X153.5Y-49.5
X155.0Y-59.427
X155.0Y-64.752
X156.5Y-49.5
X158.0Y-65.0
X158.0Y-66.5
X159.0Y-58.427
X159.5Y-63.752
X161.912Y-63.84
X162.0Y-58.427
X162.5Y-50.5
X165.5Y-50.5
X166.0Y-61.0
X166.5Y-61.5
X167.5Y-47.0
X167.505Y-51.995
X167.6Y-56.4
X168.5Y-59.5
X168.5Y-60.5
X170.4Y-56.4
X170.495Y-51.995
X170.5Y-47.0
X173.27Y-46.96
X173.505Y-51.995
X173.6Y-56.4
X176.27Y-46.96
X176.4Y-56.4
X176.495Y-51.995
X179.088Y-66.5
X182.912Y-66.5
X185.175Y-86.325
X188.825Y-86.325
X193.25Y-82.99
X201.75Y-75.99
X203.5Y-77.74
X208.75Y-82.99
T2
X195.7Y-82.0
X195.7Y-83.3
X197.0Y-82.0
X197.0Y-83.3
X198.3Y-82.0
X198.3Y-83.3
X203.4Y-82.0
X203.4Y-83.3
X204.7Y-82.0
X204.7Y-83.3
X206.0Y-82.0
X206.0Y-83.3
T3
X170.73Y-68.0
X172.0Y-66.73
X172.0Y-69.27
X174.23Y-79.0
X175.5Y-77.73
X176.77Y-79.0
T4
X124.5Y-68.89
X124.5Y-73.77
X148.195Y-74.19
X148.195Y-76.73
X148.195Y-79.27
X148.195Y-81.81
X155.815Y-74.19
X155.815Y-76.73
X155.815Y-79.27
X155.815Y-81.81
T5
X99.0Y-48.0
X99.0Y-50.54
X99.0Y-53.08
X99.5Y-58.225
X99.5Y-60.765
X99.5Y-64.5
X99.5Y-67.04
X99.5Y-70.725
X99.5Y-73.265
X99.5Y-77.0
X131.42Y-55.5
X133.96Y-55.5
X136.5Y-55.5
X139.04Y-55.5
X141.58Y-55.5
X144.12Y-55.5
X182.96Y-40.5
X185.5Y-40.5
X204.96Y-39.5
X207.5Y-39.5
T6
X122.81Y-86.66
X124.2Y-89.5
X125.58Y-86.66
X126.97Y-89.5
X128.35Y-86.66
X129.73Y-89.5
X131.12Y-86.66
X132.5Y-89.5
X133.89Y-86.66
X153.96Y-86.576
X155.35Y-89.416
X156.73Y-86.576
X158.12Y-89.416
X159.5Y-86.576
X160.88Y-89.416
X162.27Y-86.576
X163.65Y-89.416
X165.04Y-86.576
T7
X126.92Y-42.5
X137.08Y-42.5
T8
X187.42Y-93.5
X192.5Y-93.5
X197.58Y-93.5
X204.0Y-93.5
X209.08Y-93.5
X214.16Y-93.5
X220.0Y-47.42
X220.0Y-52.5
X220.167Y-64.465
X220.167Y-69.545
T9
X188.5Y-45.32
X188.5Y-50.36
X188.5Y-55.4
X188.5Y-70.66
X196.0Y-45.32
X196.0Y-50.36
X196.0Y-55.4
X196.0Y-70.66
X202.5Y-45.66
X202.5Y-50.7
X202.5Y-55.74
X202.5Y-71.0
X210.0Y-45.66
X210.0Y-50.7
X210.0Y-55.74
X210.0Y-71.0
T10
X115.85Y-88.08
X140.85Y-88.08
X147.0Y-87.996
X172.0Y-87.996
M30
