%TF.GenerationSoftware,KiCad,Pcbnew,9.0.0*%
%TF.CreationDate,2025-04-23T22:03:11+02:00*%
%TF.ProjectId,Proyecto_ArgibayManuel_YangAlex,50726f79-6563-4746-9f5f-417267696261,rev?*%
%TF.SameCoordinates,Original*%
%TF.FileFunction,Soldermask,Top*%
%TF.FilePolarity,Negative*%
%FSLAX46Y46*%
G04 Gerber Fmt 4.6, Leading zero omitted, Abs format (unit mm)*
G04 Created by KiCad (PCBNEW 9.0.0) date 2025-04-23 22:03:11*
%MOMM*%
%LPD*%
G01*
G04 APERTURE LIST*
G04 Aperture macros list*
%AMRoundRect*
0 Rectangle with rounded corners*
0 $1 Rounding radius*
0 $2 $3 $4 $5 $6 $7 $8 $9 X,Y pos of 4 corners*
0 Add a 4 corners polygon primitive as box body*
4,1,4,$2,$3,$4,$5,$6,$7,$8,$9,$2,$3,0*
0 Add four circle primitives for the rounded corners*
1,1,$1+$1,$2,$3*
1,1,$1+$1,$4,$5*
1,1,$1+$1,$6,$7*
1,1,$1+$1,$8,$9*
0 Add four rect primitives between the rounded corners*
20,1,$1+$1,$2,$3,$4,$5,0*
20,1,$1+$1,$4,$5,$6,$7,0*
20,1,$1+$1,$6,$7,$8,$9,0*
20,1,$1+$1,$8,$9,$2,$3,0*%
G04 Aperture macros list end*
%ADD10RoundRect,0.250000X-0.475000X0.250000X-0.475000X-0.250000X0.475000X-0.250000X0.475000X0.250000X0*%
%ADD11R,0.900000X1.000000*%
%ADD12RoundRect,0.250000X0.262500X0.450000X-0.262500X0.450000X-0.262500X-0.450000X0.262500X-0.450000X0*%
%ADD13RoundRect,0.102000X0.545000X0.545000X-0.545000X0.545000X-0.545000X-0.545000X0.545000X-0.545000X0*%
%ADD14C,1.294000*%
%ADD15RoundRect,0.250000X0.250000X0.475000X-0.250000X0.475000X-0.250000X-0.475000X0.250000X-0.475000X0*%
%ADD16R,1.700000X1.700000*%
%ADD17O,1.700000X1.700000*%
%ADD18RoundRect,0.250000X-0.262500X-0.450000X0.262500X-0.450000X0.262500X0.450000X-0.262500X0.450000X0*%
%ADD19RoundRect,0.250000X-1.050000X-1.050000X1.050000X-1.050000X1.050000X1.050000X-1.050000X1.050000X0*%
%ADD20C,2.600000*%
%ADD21RoundRect,0.250000X0.450000X-0.262500X0.450000X0.262500X-0.450000X0.262500X-0.450000X-0.262500X0*%
%ADD22RoundRect,0.102000X-0.605600X-0.250400X0.605600X-0.250400X0.605600X0.250400X-0.605600X0.250400X0*%
%ADD23R,2.200000X2.200000*%
%ADD24O,2.200000X2.200000*%
%ADD25RoundRect,0.102000X-0.545000X0.545000X-0.545000X-0.545000X0.545000X-0.545000X0.545000X0.545000X0*%
%ADD26RoundRect,0.150000X-0.150000X-0.200000X0.150000X-0.200000X0.150000X0.200000X-0.150000X0.200000X0*%
%ADD27RoundRect,0.100500X-0.951500X-0.301500X0.951500X-0.301500X0.951500X0.301500X-0.951500X0.301500X0*%
%ADD28C,0.464000*%
%ADD29RoundRect,0.102000X0.750000X1.000000X-0.750000X1.000000X-0.750000X-1.000000X0.750000X-1.000000X0*%
%ADD30RoundRect,0.102000X1.900000X1.000000X-1.900000X1.000000X-1.900000X-1.000000X1.900000X-1.000000X0*%
%ADD31R,3.100000X2.400000*%
%ADD32RoundRect,0.070000X-0.250000X1.100000X-0.250000X-1.100000X0.250000X-1.100000X0.250000X1.100000X0*%
%ADD33C,0.770000*%
%ADD34C,3.200000*%
%ADD35RoundRect,0.102000X0.939800X0.939800X-0.939800X0.939800X-0.939800X-0.939800X0.939800X-0.939800X0*%
%ADD36C,2.083600*%
%ADD37C,5.284000*%
%ADD38RoundRect,0.250000X-0.550000X-0.550000X0.550000X-0.550000X0.550000X0.550000X-0.550000X0.550000X0*%
%ADD39C,1.600000*%
%ADD40RoundRect,0.250000X-0.450000X0.262500X-0.450000X-0.262500X0.450000X-0.262500X0.450000X0.262500X0*%
%ADD41RoundRect,0.250000X-0.600000X0.400000X-0.600000X-0.400000X0.600000X-0.400000X0.600000X0.400000X0*%
%ADD42RoundRect,0.250000X-0.250000X-0.475000X0.250000X-0.475000X0.250000X0.475000X-0.250000X0.475000X0*%
%ADD43RoundRect,0.250000X1.050000X-1.050000X1.050000X1.050000X-1.050000X1.050000X-1.050000X-1.050000X0*%
%ADD44C,2.304000*%
%ADD45RoundRect,0.250000X0.475000X-0.250000X0.475000X0.250000X-0.475000X0.250000X-0.475000X-0.250000X0*%
%ADD46RoundRect,0.100000X-0.100000X0.637500X-0.100000X-0.637500X0.100000X-0.637500X0.100000X0.637500X0*%
%ADD47C,1.500000*%
G04 APERTURE END LIST*
D10*
%TO.C,C15*%
X174769888Y-45100000D03*
X174769888Y-47000000D03*
%TD*%
D11*
%TO.C,SW4*%
X115450000Y-53400000D03*
X119550000Y-53400000D03*
X115450000Y-55000000D03*
X119550000Y-55000000D03*
%TD*%
D12*
%TO.C,R8*%
X115500000Y-74500000D03*
X113675000Y-74500000D03*
%TD*%
D13*
%TO.C,Q2*%
X176770000Y-79000000D03*
D14*
X175500000Y-77730000D03*
X174230000Y-79000000D03*
%TD*%
D15*
%TO.C,C6*%
X108450000Y-87500000D03*
X106550000Y-87500000D03*
%TD*%
D11*
%TO.C,SW1*%
X114550000Y-62140000D03*
X110450000Y-62140000D03*
X114550000Y-60540000D03*
X110450000Y-60540000D03*
%TD*%
D16*
%TO.C,J1*%
X204960000Y-39500000D03*
D17*
X207500000Y-39500000D03*
%TD*%
D18*
%TO.C,R17*%
X163587500Y-83000000D03*
X165412500Y-83000000D03*
%TD*%
D16*
%TO.C,J5*%
X99500000Y-64500000D03*
D17*
X99500000Y-67040000D03*
%TD*%
D19*
%TO.C,J8*%
X204000000Y-93500000D03*
D20*
X209080000Y-93500000D03*
X214160000Y-93500000D03*
%TD*%
D19*
%TO.C,J7*%
X187420000Y-93500000D03*
D20*
X192500000Y-93500000D03*
X197580000Y-93500000D03*
%TD*%
D21*
%TO.C,R6*%
X160500000Y-60252500D03*
X160500000Y-58427500D03*
%TD*%
D22*
%TO.C,U4*%
X154000000Y-63752500D03*
X154000000Y-64702500D03*
X154000000Y-65652500D03*
X156300000Y-65652500D03*
X156300000Y-63752500D03*
%TD*%
D23*
%TO.C,D3*%
X137080000Y-42500000D03*
D24*
X126920000Y-42500000D03*
%TD*%
D25*
%TO.C,Q1*%
X172000000Y-66730000D03*
D14*
X170730000Y-68000000D03*
X172000000Y-69270000D03*
%TD*%
D16*
%TO.C,J6*%
X99500000Y-70725000D03*
D17*
X99500000Y-73265000D03*
%TD*%
D11*
%TO.C,SW3*%
X114550000Y-70140000D03*
X110450000Y-70140000D03*
X114550000Y-68540000D03*
X110450000Y-68540000D03*
%TD*%
D26*
%TO.C,D1*%
X182700000Y-72500000D03*
X181300000Y-72500000D03*
%TD*%
D27*
%TO.C,U1*%
X129290000Y-60340000D03*
X129290000Y-61610000D03*
X129290000Y-62880000D03*
X129290000Y-64150000D03*
X129290000Y-65420000D03*
X129290000Y-66690000D03*
X129290000Y-67960000D03*
X129290000Y-69230000D03*
X129290000Y-70500000D03*
X129290000Y-71770000D03*
X129290000Y-73040000D03*
X129290000Y-74310000D03*
X129290000Y-75580000D03*
X129290000Y-76850000D03*
X138500000Y-76850000D03*
X138500000Y-75580000D03*
X138500000Y-74310000D03*
X138500000Y-73040000D03*
X138500000Y-71770000D03*
X138500000Y-70500000D03*
X138500000Y-69230000D03*
X138500000Y-67960000D03*
X138500000Y-66690000D03*
X138500000Y-65420000D03*
X138500000Y-64150000D03*
X138500000Y-62880000D03*
X138500000Y-61610000D03*
X138500000Y-60340000D03*
%TD*%
D21*
%TO.C,R4*%
X164000000Y-60252500D03*
X164000000Y-58427500D03*
%TD*%
%TO.C,R12*%
X181000000Y-68325000D03*
X181000000Y-66500000D03*
%TD*%
D28*
%TO.C,U2*%
X121000000Y-81000000D03*
X121000000Y-80000000D03*
X121500000Y-81000000D03*
X121500000Y-80000000D03*
X122000000Y-81000000D03*
X122000000Y-80000000D03*
%TD*%
D21*
%TO.C,R16*%
X164000000Y-50412500D03*
X164000000Y-48587500D03*
%TD*%
D15*
%TO.C,C9*%
X108400000Y-79580000D03*
X106500000Y-79580000D03*
%TD*%
D29*
%TO.C,IC1*%
X149800000Y-42850000D03*
X147500000Y-42850000D03*
X145200000Y-42850000D03*
D30*
X147500000Y-49150000D03*
%TD*%
D12*
%TO.C,R11*%
X169682500Y-77500000D03*
X167857500Y-77500000D03*
%TD*%
D31*
%TO.C,U6*%
X197000000Y-82650000D03*
D32*
X198905000Y-79775000D03*
X197635000Y-79775000D03*
X196365000Y-79775000D03*
X195095000Y-79775000D03*
X195095000Y-85525000D03*
X196365000Y-85525000D03*
X197635000Y-85525000D03*
X198905000Y-85525000D03*
D33*
X198300000Y-82000000D03*
X197000000Y-82000000D03*
X195700000Y-82000000D03*
X198300000Y-83300000D03*
X197000000Y-83300000D03*
X195700000Y-83300000D03*
%TD*%
D16*
%TO.C,J9*%
X99000000Y-53080000D03*
D17*
X99000000Y-50540000D03*
X99000000Y-48000000D03*
%TD*%
D12*
%TO.C,R10*%
X167412500Y-68000000D03*
X165587500Y-68000000D03*
%TD*%
D34*
%TO.C,REF\u002A\u002A*%
X221000000Y-90500000D03*
%TD*%
D35*
%TO.C,X1*%
X165040000Y-86576500D03*
D36*
X162270000Y-86576500D03*
X159500000Y-86576500D03*
X156730000Y-86576500D03*
X153960000Y-86576500D03*
X163650000Y-89416500D03*
X160880000Y-89416500D03*
X158120000Y-89416500D03*
X155350000Y-89416500D03*
D37*
X172000000Y-87996500D03*
X147000000Y-87996500D03*
%TD*%
D34*
%TO.C,REF\u002A\u002A*%
X102000000Y-90500000D03*
%TD*%
D31*
%TO.C,U7*%
X204700000Y-82650000D03*
D32*
X206605000Y-79775000D03*
X205335000Y-79775000D03*
X204065000Y-79775000D03*
X202795000Y-79775000D03*
X202795000Y-85525000D03*
X204065000Y-85525000D03*
X205335000Y-85525000D03*
X206605000Y-85525000D03*
D33*
X206000000Y-82000000D03*
X204700000Y-82000000D03*
X203400000Y-82000000D03*
X206000000Y-83300000D03*
X204700000Y-83300000D03*
X203400000Y-83300000D03*
%TD*%
D10*
%TO.C,C14*%
X169000000Y-45100000D03*
X169000000Y-47000000D03*
%TD*%
D16*
%TO.C,J12*%
X131420000Y-55500000D03*
D17*
X133960000Y-55500000D03*
X136500000Y-55500000D03*
X139040000Y-55500000D03*
X141580000Y-55500000D03*
X144120000Y-55500000D03*
%TD*%
D34*
%TO.C,REF\u002A\u002A*%
X221500000Y-37000000D03*
%TD*%
D16*
%TO.C,J4*%
X99500000Y-58225000D03*
D17*
X99500000Y-60765000D03*
%TD*%
D38*
%TO.C,U8*%
X148195000Y-74190000D03*
D39*
X148195000Y-76730000D03*
X148195000Y-79270000D03*
X148195000Y-81810000D03*
X155815000Y-81810000D03*
X155815000Y-79270000D03*
X155815000Y-76730000D03*
X155815000Y-74190000D03*
%TD*%
D40*
%TO.C,R13*%
X187000000Y-84500000D03*
X187000000Y-86325000D03*
%TD*%
D21*
%TO.C,R7*%
X160587500Y-65665000D03*
X160587500Y-63840000D03*
%TD*%
D41*
%TO.C,D4*%
X129500000Y-47500000D03*
X129500000Y-51000000D03*
%TD*%
D42*
%TO.C,C16*%
X163550000Y-80000000D03*
X165450000Y-80000000D03*
%TD*%
D11*
%TO.C,SW2*%
X114550000Y-66140000D03*
X110450000Y-66140000D03*
X114550000Y-64540000D03*
X110450000Y-64540000D03*
%TD*%
D43*
%TO.C,J11*%
X220000000Y-52500000D03*
D20*
X220000000Y-47420000D03*
%TD*%
D10*
%TO.C,C11*%
X141000000Y-47600000D03*
X141000000Y-49500000D03*
%TD*%
%TO.C,C10*%
X175000000Y-50094888D03*
X175000000Y-51994888D03*
%TD*%
D34*
%TO.C,REF\u002A\u002A*%
X102000000Y-37000000D03*
%TD*%
D44*
%TO.C,K1*%
X196000000Y-50360000D03*
X188500000Y-50360000D03*
X196000000Y-55400000D03*
X188500000Y-55400000D03*
X196000000Y-45320000D03*
X188500000Y-45320000D03*
X196000000Y-70660000D03*
X188500000Y-70660000D03*
%TD*%
D10*
%TO.C,C12*%
X134500000Y-47600000D03*
X134500000Y-49500000D03*
%TD*%
D16*
%TO.C,J2*%
X99500000Y-77000000D03*
%TD*%
D22*
%TO.C,U3*%
X154000000Y-58625500D03*
X154000000Y-59575500D03*
X154000000Y-60525500D03*
X156300000Y-60525500D03*
X156300000Y-58625500D03*
%TD*%
D10*
%TO.C,C13*%
X155000000Y-47600000D03*
X155000000Y-49500000D03*
%TD*%
D26*
%TO.C,D2*%
X183200000Y-86000000D03*
X181800000Y-86000000D03*
%TD*%
D21*
%TO.C,R5*%
X164000000Y-65752500D03*
X164000000Y-63927500D03*
%TD*%
D35*
%TO.C,X2*%
X133890000Y-86660000D03*
D36*
X131120000Y-86660000D03*
X128350000Y-86660000D03*
X125580000Y-86660000D03*
X122810000Y-86660000D03*
X132500000Y-89500000D03*
X129730000Y-89500000D03*
X126970000Y-89500000D03*
X124200000Y-89500000D03*
D37*
X140850000Y-88080000D03*
X115850000Y-88080000D03*
%TD*%
D40*
%TO.C,R1*%
X126000000Y-78340000D03*
X126000000Y-80165000D03*
%TD*%
D18*
%TO.C,R3*%
X104675000Y-56000000D03*
X106500000Y-56000000D03*
%TD*%
D10*
%TO.C,C8*%
X169000000Y-54500000D03*
X169000000Y-56400000D03*
%TD*%
D43*
%TO.C,J10*%
X220167500Y-69545000D03*
D20*
X220167500Y-64465000D03*
%TD*%
D10*
%TO.C,C3*%
X169000000Y-50094888D03*
X169000000Y-51994888D03*
%TD*%
D18*
%TO.C,R9*%
X122175000Y-77500000D03*
X124000000Y-77500000D03*
%TD*%
D45*
%TO.C,C1*%
X119500000Y-42400000D03*
X119500000Y-40500000D03*
%TD*%
D16*
%TO.C,J3*%
X182960000Y-40500000D03*
D17*
X185500000Y-40500000D03*
%TD*%
D40*
%TO.C,R15*%
X160000000Y-48587500D03*
X160000000Y-50412500D03*
%TD*%
D10*
%TO.C,C5*%
X121000000Y-71890000D03*
X121000000Y-73790000D03*
%TD*%
D44*
%TO.C,K2*%
X210000000Y-50700000D03*
X202500000Y-50700000D03*
X210000000Y-55740000D03*
X202500000Y-55740000D03*
X210000000Y-45660000D03*
X202500000Y-45660000D03*
X210000000Y-71000000D03*
X202500000Y-71000000D03*
%TD*%
D42*
%TO.C,C2*%
X106500000Y-84500000D03*
X108400000Y-84500000D03*
%TD*%
D45*
%TO.C,C4*%
X121000000Y-70290000D03*
X121000000Y-68390000D03*
%TD*%
D10*
%TO.C,C7*%
X175000000Y-54500000D03*
X175000000Y-56400000D03*
%TD*%
D46*
%TO.C,U5*%
X119100000Y-77775000D03*
X118450000Y-77775000D03*
X117800000Y-77775000D03*
X117150000Y-77775000D03*
X116500000Y-77775000D03*
X115850000Y-77775000D03*
X115200000Y-77775000D03*
X114550000Y-77775000D03*
X113900000Y-77775000D03*
X113250000Y-77775000D03*
X113250000Y-83500000D03*
X113900000Y-83500000D03*
X114550000Y-83500000D03*
X115200000Y-83500000D03*
X115850000Y-83500000D03*
X116500000Y-83500000D03*
X117150000Y-83500000D03*
X117800000Y-83500000D03*
X118450000Y-83500000D03*
X119100000Y-83500000D03*
%TD*%
D12*
%TO.C,R2*%
X137500000Y-79912500D03*
X135675000Y-79912500D03*
%TD*%
D47*
%TO.C,Y1*%
X124500000Y-68890000D03*
X124500000Y-73770000D03*
%TD*%
M02*
