%TF.GenerationSoftware,KiCad,Pcbnew,9.0.0*%
%TF.CreationDate,2025-04-23T22:03:11+02:00*%
%TF.ProjectId,Proyecto_ArgibayManuel_YangAlex,50726f79-6563-4746-9f5f-417267696261,rev?*%
%TF.SameCoordinates,Original*%
%TF.FileFunction,Soldermask,Bot*%
%TF.FilePolarity,Negative*%
%FSLAX46Y46*%
G04 Gerber Fmt 4.6, Leading zero omitted, Abs format (unit mm)*
G04 Created by KiCad (PCBNEW 9.0.0) date 2025-04-23 22:03:11*
%MOMM*%
%LPD*%
G01*
G04 APERTURE LIST*
G04 Aperture macros list*
%AMRoundRect*
0 Rectangle with rounded corners*
0 $1 Rounding radius*
0 $2 $3 $4 $5 $6 $7 $8 $9 X,Y pos of 4 corners*
0 Add a 4 corners polygon primitive as box body*
4,1,4,$2,$3,$4,$5,$6,$7,$8,$9,$2,$3,0*
0 Add four circle primitives for the rounded corners*
1,1,$1+$1,$2,$3*
1,1,$1+$1,$4,$5*
1,1,$1+$1,$6,$7*
1,1,$1+$1,$8,$9*
0 Add four rect primitives between the rounded corners*
20,1,$1+$1,$2,$3,$4,$5,0*
20,1,$1+$1,$4,$5,$6,$7,0*
20,1,$1+$1,$6,$7,$8,$9,0*
20,1,$1+$1,$8,$9,$2,$3,0*%
G04 Aperture macros list end*
%ADD10R,1.090000X1.090000*%
%ADD11C,1.090000*%
%ADD12R,1.700000X1.700000*%
%ADD13O,1.700000X1.700000*%
%ADD14RoundRect,0.250000X-1.050000X-1.050000X1.050000X-1.050000X1.050000X1.050000X-1.050000X1.050000X0*%
%ADD15C,2.600000*%
%ADD16R,2.200000X2.200000*%
%ADD17O,2.200000X2.200000*%
%ADD18C,0.770000*%
%ADD19C,3.200000*%
%ADD20R,1.879600X1.879600*%
%ADD21C,1.879600*%
%ADD22C,5.080000*%
%ADD23RoundRect,0.250000X-0.550000X-0.550000X0.550000X-0.550000X0.550000X0.550000X-0.550000X0.550000X0*%
%ADD24C,1.600000*%
%ADD25RoundRect,0.250000X1.050000X-1.050000X1.050000X1.050000X-1.050000X1.050000X-1.050000X-1.050000X0*%
%ADD26C,2.100000*%
%ADD27C,1.500000*%
G04 APERTURE END LIST*
D10*
%TO.C,Q2*%
X176770000Y-79000000D03*
D11*
X175500000Y-77730000D03*
X174230000Y-79000000D03*
%TD*%
D12*
%TO.C,J1*%
X204960000Y-39500000D03*
D13*
X207500000Y-39500000D03*
%TD*%
D12*
%TO.C,J5*%
X99500000Y-64500000D03*
D13*
X99500000Y-67040000D03*
%TD*%
D14*
%TO.C,J8*%
X204000000Y-93500000D03*
D15*
X209080000Y-93500000D03*
X214160000Y-93500000D03*
%TD*%
D14*
%TO.C,J7*%
X187420000Y-93500000D03*
D15*
X192500000Y-93500000D03*
X197580000Y-93500000D03*
%TD*%
D16*
%TO.C,D3*%
X137080000Y-42500000D03*
D17*
X126920000Y-42500000D03*
%TD*%
D10*
%TO.C,Q1*%
X172000000Y-66730000D03*
D11*
X170730000Y-68000000D03*
X172000000Y-69270000D03*
%TD*%
D12*
%TO.C,J6*%
X99500000Y-70725000D03*
D13*
X99500000Y-73265000D03*
%TD*%
D18*
%TO.C,U6*%
X198300000Y-82000000D03*
X197000000Y-82000000D03*
X195700000Y-82000000D03*
X198300000Y-83300000D03*
X197000000Y-83300000D03*
X195700000Y-83300000D03*
%TD*%
D12*
%TO.C,J9*%
X99000000Y-53080000D03*
D13*
X99000000Y-50540000D03*
X99000000Y-48000000D03*
%TD*%
D19*
%TO.C,REF\u002A\u002A*%
X221000000Y-90500000D03*
%TD*%
D20*
%TO.C,X1*%
X165040000Y-86576500D03*
D21*
X162270000Y-86576500D03*
X159500000Y-86576500D03*
X156730000Y-86576500D03*
X153960000Y-86576500D03*
X163650000Y-89416500D03*
X160880000Y-89416500D03*
X158120000Y-89416500D03*
X155350000Y-89416500D03*
D22*
X172000000Y-87996500D03*
X147000000Y-87996500D03*
%TD*%
D19*
%TO.C,REF\u002A\u002A*%
X102000000Y-90500000D03*
%TD*%
D18*
%TO.C,U7*%
X206000000Y-82000000D03*
X204700000Y-82000000D03*
X203400000Y-82000000D03*
X206000000Y-83300000D03*
X204700000Y-83300000D03*
X203400000Y-83300000D03*
%TD*%
D12*
%TO.C,J12*%
X131420000Y-55500000D03*
D13*
X133960000Y-55500000D03*
X136500000Y-55500000D03*
X139040000Y-55500000D03*
X141580000Y-55500000D03*
X144120000Y-55500000D03*
%TD*%
D19*
%TO.C,REF\u002A\u002A*%
X221500000Y-37000000D03*
%TD*%
D12*
%TO.C,J4*%
X99500000Y-58225000D03*
D13*
X99500000Y-60765000D03*
%TD*%
D23*
%TO.C,U8*%
X148195000Y-74190000D03*
D24*
X148195000Y-76730000D03*
X148195000Y-79270000D03*
X148195000Y-81810000D03*
X155815000Y-81810000D03*
X155815000Y-79270000D03*
X155815000Y-76730000D03*
X155815000Y-74190000D03*
%TD*%
D25*
%TO.C,J11*%
X220000000Y-52500000D03*
D15*
X220000000Y-47420000D03*
%TD*%
D19*
%TO.C,REF\u002A\u002A*%
X102000000Y-37000000D03*
%TD*%
D26*
%TO.C,K1*%
X196000000Y-50360000D03*
X188500000Y-50360000D03*
X196000000Y-55400000D03*
X188500000Y-55400000D03*
X196000000Y-45320000D03*
X188500000Y-45320000D03*
X196000000Y-70660000D03*
X188500000Y-70660000D03*
%TD*%
D12*
%TO.C,J2*%
X99500000Y-77000000D03*
%TD*%
D20*
%TO.C,X2*%
X133890000Y-86660000D03*
D21*
X131120000Y-86660000D03*
X128350000Y-86660000D03*
X125580000Y-86660000D03*
X122810000Y-86660000D03*
X132500000Y-89500000D03*
X129730000Y-89500000D03*
X126970000Y-89500000D03*
X124200000Y-89500000D03*
D22*
X140850000Y-88080000D03*
X115850000Y-88080000D03*
%TD*%
D25*
%TO.C,J10*%
X220167500Y-69545000D03*
D15*
X220167500Y-64465000D03*
%TD*%
D12*
%TO.C,J3*%
X182960000Y-40500000D03*
D13*
X185500000Y-40500000D03*
%TD*%
D26*
%TO.C,K2*%
X210000000Y-50700000D03*
X202500000Y-50700000D03*
X210000000Y-55740000D03*
X202500000Y-55740000D03*
X210000000Y-45660000D03*
X202500000Y-45660000D03*
X210000000Y-71000000D03*
X202500000Y-71000000D03*
%TD*%
D27*
%TO.C,Y1*%
X124500000Y-68890000D03*
X124500000Y-73770000D03*
%TD*%
M02*
